HIERARCHY
ROOT Hips
{
     OFFSET 21.06130 94.44770 -28.80040
     CHANNELS 6 Xposition Yposition Zposition Zrotation Xrotation Yrotation
     JOINT Spine
     {
          OFFSET 0.00000 11.89050 -0.00000
          CHANNELS 3 Zrotation Xrotation Yrotation
          JOINT Spine1
          {
               OFFSET -0.00000 25.65740 0.12766
               CHANNELS 3 Zrotation Xrotation Yrotation
               JOINT HEad
               {
                    OFFSET -0.00000 8.73416 0.01134
                    CHANNELS 3 Zrotation Xrotation Yrotation
                    End Site
                    {
                         OFFSET -0.29000 12.77420 2.51395
                    }
               }
               JOINT LeftShoulder1
               {
                    OFFSET 8.99000 -0.36225 -0.22000
                    CHANNELS 3 Zrotation Xrotation Yrotation
                    JOINT LeftArm
                    {
                         OFFSET 10.28270 -0.00338 0.32212
                         CHANNELS 3 Zrotation Xrotation Yrotation
                         JOINT LeftForeArm
                         {
                              OFFSET 32.76690 0.09914 -1.42434
                              CHANNELS 3 Zrotation Xrotation Yrotation
                              JOINT LeftHand
                              {
                                   OFFSET 27.56430 0.08536 1.02216
                                   CHANNELS 3 Zrotation Xrotation Yrotation
                                   End Site
                                   {
                                        OFFSET 16.74430 -0.60000 1.50291
                                   }
                              }
                         }
                    }
               }
               JOINT RightShoulder
               {
                    OFFSET -8.99000 -0.36225 -0.22000
                    CHANNELS 3 Zrotation Xrotation Yrotation
                    JOINT RightArm
                    {
                         OFFSET -10.28270 -0.00338 0.32212
                         CHANNELS 3 Zrotation Xrotation Yrotation
                         JOINT RightForeArm
                         {
                              OFFSET -32.89710 0.09914 -1.42434
                              CHANNELS 3 Zrotation Xrotation Yrotation
                              JOINT RightHand
                              {
                                   OFFSET -27.49210 0.08536 1.02216
                                   CHANNELS 3 Zrotation Xrotation Yrotation
                                   End Site
                                   {
                                        OFFSET -16.63120 -0.60000 1.50291
                                   }
                              }
                         }
                    }
               }
          }
     }
     JOINT LeftUpLeg
     {
          OFFSET 8.94580 -8.66707 0.10165
          CHANNELS 3 Zrotation Xrotation Yrotation
          JOINT LeftLeg
          {
               OFFSET 0.00000 -44.42270 1.37270
               CHANNELS 3 Zrotation Xrotation Yrotation
               JOINT LeftFoot
               {
                    OFFSET -0.25355 -42.09240 -1.46059
                    CHANNELS 3 Zrotation Xrotation Yrotation
                    JOINT LeftToes
                    {
                         OFFSET -0.04000 -4.41509 8.49910
                         CHANNELS 3 Zrotation Xrotation Yrotation
                         End Site
                         {
                              OFFSET 0.08000 -0.04745 9.77979
                         }
                    }
               }
          }
     }
     JOINT RightUpLeg
     {
          OFFSET -8.94580 -8.66707 0.10165
          CHANNELS 3 Zrotation Xrotation Yrotation
          JOINT RightLeg
          {
               OFFSET -0.00000 -44.42270 1.37270
               CHANNELS 3 Zrotation Xrotation Yrotation
               JOINT RightFoot
               {
                    OFFSET 0.25355 -42.09240 -1.46059
                    CHANNELS 3 Zrotation Xrotation Yrotation
                    JOINT RightToes
                    {
                         OFFSET 0.04000 -4.41509 8.49910
                         CHANNELS 3 Zrotation Xrotation Yrotation
                         End Site
                         {
                              OFFSET -0.08000 -0.13745 9.77979
                         }
                    }
               }
          }
     }
}
MOTION
Frames: 6
Frame Time: 0.01667
27.46570 91.47370 15.39780 -22.64810 -0.45521 -67.81250 -1.31612 6.87422 -3.86218 4.80797 14.52960 -10.29980 -3.33400 17.73720 41.37360 -0.00000 0.00000 -0.00000 -117.58800 -23.10330 177.91901 -116.41100 38.76060 -31.84920 10.22520 6.53120 -34.98890 25.65780 3.45430 10.26690 67.04310 11.04140 65.15130 33.14770 26.35050 79.23990 -1.35954 9.79375 15.20190 42.21950 11.34360 -13.59140 -35.44470 15.06030 80.34950 -6.49999 7.55674 0.80009 -0.08606 -33.80770 -66.74670 -30.89160 7.39042 15.11330 46.13270 15.40690 -31.81260 -22.89330 12.33980 3.99479 2.46990 -28.30550 0.81306 
27.72440 91.35470 15.57000 -22.44220 -0.94932 -66.70250 -2.03371 6.95321 -3.60532 4.45796 14.71540 -10.01970 -2.59072 16.99380 40.39310 -0.00000 0.00000 -0.00000 -120.61100 -19.12630 178.97600 -116.03400 39.36410 -31.87820 11.25460 6.10891 -35.50860 25.18880 3.38050 10.19100 67.67620 10.86980 65.78900 32.71020 26.41910 79.38820 -1.25092 9.81277 15.07100 41.95610 10.07210 -12.97200 -35.94290 16.11960 80.53930 -5.85526 8.22963 0.74462 -0.84637 -35.12150 -67.84770 -31.51390 7.90430 15.77710 46.30660 14.48530 -32.29700 -23.44700 11.77980 3.97622 2.42489 -27.75730 0.86889 
27.99600 91.23980 15.66730 -22.15760 -1.38988 -65.55690 -2.64663 7.06002 -3.32645 4.18077 14.93940 -9.63810 -2.03971 16.05340 39.31940 -0.00000 0.00000 -0.00000 -123.91600 -15.05800 -179.50301 -115.47500 40.42480 -32.12070 12.02430 5.79807 -35.78400 24.70960 3.30951 10.12700 68.49740 10.67030 66.46760 32.42580 26.44430 79.41750 -1.34075 9.79816 14.97510 41.68610 8.71139 -12.44780 -36.36580 17.09600 80.60360 -5.27871 8.81307 0.68795 -1.48876 -36.15960 -68.78560 -32.16530 8.21863 16.40520 46.44890 13.79480 -32.30460 -23.53020 11.55760 3.94355 2.47212 -27.70670 1.34824 
28.27500 91.15170 15.70150 -21.82630 -1.81823 -64.42840 -3.13818 7.19969 -3.00993 3.96677 15.21640 -9.11737 -1.65054 14.91260 38.09090 -0.00000 0.00000 -0.00000 -127.65200 -11.37820 -177.39400 -114.67800 41.72080 -32.54200 12.52370 5.61537 -35.77760 24.20270 3.22959 10.03800 69.46540 10.38660 67.24000 32.14770 26.44560 79.35770 -1.49870 9.77221 14.89990 41.33550 7.37526 -11.94870 -36.60200 17.98340 80.56750 -4.73034 9.44676 0.63144 -2.11493 -37.11610 -69.69640 -32.89010 8.39986 17.05260 46.54810 13.29170 -31.92240 -23.32120 11.54780 3.90501 2.58487 -27.97550 2.12498 
28.55200 91.08450 15.66730 -21.49240 -2.29301 -63.31740 -3.52773 7.37432 -2.65999 3.77867 15.55980 -8.47114 -1.30379 13.66340 36.79580 -0.00000 0.00000 -0.00000 -131.88100 -8.55393 -174.65500 -113.65300 43.02900 -33.01960 12.88920 5.50999 -35.53640 23.68200 3.13036 9.87627 70.52170 10.01210 68.12090 31.73810 26.44070 79.26150 -1.67109 9.74384 14.85220 40.86700 5.95503 -11.42390 -36.70140 19.13210 80.54180 -4.31553 10.17680 0.59257 -2.84103 -38.16390 -70.74310 -33.72540 8.53660 17.78930 46.61170 12.92900 -31.40870 -23.05300 11.51920 3.85231 2.73218 -28.34720 3.06297 
28.81590 91.02300 15.54740 -21.22810 -2.84701 -62.18350 -3.82469 7.58834 -2.30451 3.60242 15.98450 -7.76324 -0.92130 12.43660 35.54150 -0.00000 0.00000 -0.00000 -136.49800 -7.00894 -171.34300 -112.53300 44.09400 -33.34300 13.22760 5.43868 -35.11180 23.17020 3.00757 9.61080 71.59130 9.58529 69.08730 31.17730 26.42730 79.15380 -1.87122 9.71063 14.84110 40.34880 4.51771 -10.94730 -36.71100 20.46990 80.50030 -3.94025 10.98390 0.55703 -3.66558 -39.28940 -71.89760 -34.64630 8.74739 18.66520 46.63440 12.66110 -31.14620 -22.93680 11.23840 3.77377 2.86933 -28.55810 4.02474 
